<svg xmlns="http://www.w3.org/2000/svg" fill="none" viewBox="0 0 80 80" class="design-iconfont">
  <g filter="url(#mix9si3nl__filter0_d_2617_10300)">
    <path fill="#6FCF97" d="M40 11.4284A27.1429 27.1429 0 1 0 40 65.7142A27.1429 27.1429 0 1 0 40 11.4284Z"/>
  </g>
  <path d="M52.0139 32.7874L35.8522 47.9162L27.9858 39.7699" stroke="#fff" stroke-width="5.33958" stroke-linecap="round" stroke-linejoin="round"/>
  <path d="M60.8112 0.671388C60.7727 0.551014 60.6969 0.446 60.5947 0.371493C60.4926 0.296985 60.3695 0.256836 60.2431 0.256836C60.1167 0.256836 59.9936 0.296985 59.8915 0.371493C59.7894 0.446 59.7136 0.551014 59.675 0.671388L58.7913 3.56119L55.9029 4.45879C55.7825 4.49512 55.677 4.56924 55.602 4.67019C55.5271 4.77113 55.4866 4.89353 55.4866 5.01927C55.4866 5.14501 55.5271 5.26741 55.602 5.36835C55.677 5.46929 55.7825 5.54342 55.9029 5.57975L58.7913 6.47735L59.675 9.36715C59.7037 9.45863 59.7538 9.54196 59.8211 9.61024C59.8884 9.67852 59.971 9.72977 60.0621 9.75976C60.1366 9.78389 60.2153 9.79284 60.2934 9.78607C60.3715 9.77931 60.4474 9.75696 60.5167 9.72037C60.586 9.68377 60.6473 9.63366 60.6969 9.573C60.7466 9.51233 60.7835 9.44234 60.8057 9.36715L61.6963 6.47735L64.5847 5.57975C64.7075 5.54599 64.8158 5.47287 64.8929 5.37161C64.9701 5.27036 65.0119 5.14657 65.0119 5.01927C65.0119 4.89196 64.9701 4.76818 64.8929 4.66692C64.8158 4.56567 64.7075 4.49255 64.5847 4.45879L61.7019 3.56119L60.8112 0.671388ZM60.6558 4.21323L60.2396 2.86753L59.8234 4.21323C59.7941 4.30582 59.7434 4.39021 59.6754 4.45961C59.6075 4.52901 59.5242 4.58147 59.4322 4.61278L58.0851 5.01927L59.4322 5.43547C59.5241 5.46274 59.6078 5.51218 59.676 5.57944C59.7442 5.64669 59.7949 5.7297 59.8234 5.82114L60.2396 7.17517L60.6558 5.82114C60.6857 5.73017 60.7369 5.64768 60.8053 5.58057C60.8736 5.51347 60.957 5.46371 61.0485 5.43547L62.4025 5.01927L61.0498 4.61278C60.9577 4.58146 60.8743 4.52901 60.8061 4.45963C60.7379 4.39025 60.6869 4.30586 60.6572 4.21323H60.6558Z" fill="#6FCF97"/>
  <path d="M72.0417 11.6219C72.021 11.5572 71.9803 11.5008 71.9254 11.4608C71.8706 11.4207 71.8044 11.3992 71.7365 11.3992C71.6686 11.3992 71.6024 11.4207 71.5476 11.4608C71.4927 11.5008 71.452 11.5572 71.4313 11.6219L70.9555 13.1757L69.4017 13.6585C69.3367 13.6779 69.2797 13.7178 69.2393 13.7721C69.1988 13.8265 69.1769 13.8925 69.1769 13.9603C69.1769 14.0281 69.1988 14.094 69.2393 14.1484C69.2797 14.2028 69.3367 14.2426 69.4017 14.262L70.9555 14.7448L71.4313 16.2986C71.4468 16.3477 71.4737 16.3925 71.5099 16.4292C71.5461 16.4658 71.5905 16.4934 71.6394 16.5095C71.6795 16.5223 71.7217 16.527 71.7636 16.5233C71.8055 16.5196 71.8463 16.5076 71.8835 16.488C71.9207 16.4683 71.9536 16.4415 71.9803 16.409C72.007 16.3764 72.0269 16.3389 72.0389 16.2986L72.5231 14.7448L74.0769 14.262C74.1435 14.2444 74.2024 14.2052 74.2444 14.1506C74.2864 14.0961 74.3091 14.0291 74.3091 13.9603C74.3091 13.8914 74.2864 13.8245 74.2444 13.7699C74.2024 13.7153 74.1435 13.6762 74.0769 13.6585L72.5231 13.1757L72.0445 11.6219H72.0417ZM71.9585 13.5253L71.7365 12.8012L71.5132 13.5253C71.4974 13.5752 71.4701 13.6207 71.4334 13.6581C71.3968 13.6954 71.3519 13.7236 71.3023 13.7404L70.5781 13.9596L71.3023 14.1857C71.3517 14.2002 71.3968 14.2266 71.4336 14.2627C71.4704 14.2987 71.4977 14.3433 71.5132 14.3924L71.7365 15.1208L71.9585 14.3924C71.9746 14.3436 72.0021 14.2994 72.0388 14.2635C72.0755 14.2275 72.1203 14.2008 72.1694 14.1857L72.8977 13.9596L72.1694 13.7459C72.1198 13.7291 72.075 13.7008 72.0383 13.6635C72.0017 13.6261 71.9744 13.5807 71.9585 13.5309V13.5253Z" fill="#6FCF97"/>
  <path d="M11.4377 60.3778C11.417 60.3131 11.3763 60.2567 11.3214 60.2166C11.2666 60.1766 11.2004 60.155 11.1325 60.155C11.0646 60.155 10.9984 60.1766 10.9436 60.2166C10.8887 60.2567 10.848 60.3131 10.8273 60.3778L10.3515 61.9316L8.79765 62.4144C8.7327 62.4338 8.67574 62.4736 8.63524 62.528C8.59475 62.5824 8.57288 62.6483 8.57288 62.7161C8.57288 62.7839 8.59475 62.8499 8.63524 62.9043C8.67574 62.9586 8.7327 62.9985 8.79765 63.0179L10.3515 63.5007L10.8273 65.0545C10.8428 65.1036 10.8697 65.1484 10.9059 65.185C10.9421 65.2217 10.9865 65.2492 11.0354 65.2653C11.0755 65.2782 11.1177 65.2829 11.1596 65.2792C11.2015 65.2755 11.2423 65.2635 11.2795 65.2438C11.3167 65.2242 11.3496 65.1973 11.3763 65.1648C11.403 65.1323 11.4229 65.0948 11.435 65.0545L11.9191 63.5007L13.4729 63.0179C13.5395 63.0002 13.5984 62.9611 13.6404 62.9065C13.6824 62.8519 13.7052 62.785 13.7052 62.7161C13.7052 62.6473 13.6824 62.5803 13.6404 62.5257C13.5984 62.4712 13.5395 62.432 13.4729 62.4144L11.9191 61.9316L11.4405 60.3778H11.4377ZM11.3545 62.2812L11.1325 61.557L10.9092 62.2812C10.8934 62.3311 10.8661 62.3766 10.8294 62.4139C10.7928 62.4513 10.7479 62.4795 10.6983 62.4962L9.9741 62.7154L10.6983 62.9416C10.7477 62.9561 10.7928 62.9825 10.8296 63.0185C10.8664 63.0546 10.8937 63.0992 10.9092 63.1483L11.1325 63.8766L11.3545 63.1483C11.3706 63.0995 11.3981 63.0553 11.4348 63.0193C11.4715 62.9833 11.5163 62.9567 11.5654 62.9416L12.2937 62.7154L11.5654 62.5018C11.5158 62.4849 11.471 62.4567 11.4343 62.4194C11.3977 62.382 11.3704 62.3366 11.3545 62.2867V62.2812Z" fill="#6FCF97"/>
  <defs>
    <filter id="mix9si3nl__filter0_d_2617_10300" x="5.73774" y="9.64861" width="68.5246" height="68.5245" filterUnits="userSpaceOnUse" color-interpolation-filters="sRGB">
      <feFlood flood-opacity="0" result="BackgroundImageFix"/>
      <feColorMatrix in="SourceAlpha" values="0 0 0 0 0 0 0 0 0 0 0 0 0 0 0 0 0 0 127 0" result="hardAlpha"/>
      <feOffset dy="5.33958"/>
      <feGaussianBlur stdDeviation="3.55972"/>
      <feComposite in2="hardAlpha" operator="out"/>
      <feColorMatrix values="0 0 0 0 0.435294 0 0 0 0 0.811765 0 0 0 0 0.592157 0 0 0 0.2 0"/>
      <feBlend in2="BackgroundImageFix" result="effect1_dropShadow_2617_10300"/>
      <feBlend in="SourceGraphic" in2="effect1_dropShadow_2617_10300" result="shape"/>
    </filter>
  </defs>
</svg>
