<svg xmlns="http://www.w3.org/2000/svg" fill="none" viewBox="0 0 26 13" class="design-iconfont">
  <path fill-rule="evenodd" clip-rule="evenodd" d="M11.44 12H26V2.72727C26 1.22182 24.8352 0 23.4 0H0C0 6.63273 5.1168 12 11.44 12Z" fill="#773900"/>
  <path d="M9.168 2.456C9.792 2.944 10.312 3.432 10.728 3.92L10.2 4.448C9.832 3.984 9.312 3.488 8.648 2.952L9.168 2.456ZM11.576 2.704L12.28 3.016C11.568 5.416 10.52 7.248 9.144 8.496C9.16 8.696 9.28 8.8 9.52 8.8H10.808C11 8.8 11.144 8.72 11.232 8.568C11.344 8.408 11.424 7.888 11.464 7.016L12.184 7.264C12.112 8.36 11.976 9.016 11.784 9.232C11.6 9.424 11.32 9.528 10.944 9.528H9.28C8.84 9.528 8.568 9.368 8.456 9.056C8.032 9.36 7.592 9.616 7.128 9.824L6.688 9.184C7.312 8.896 7.872 8.544 8.384 8.12V4.112H9.144V7.392C10.216 6.216 11.032 4.656 11.576 2.704ZM7.192 4.824L7.92 4.976C7.696 6.272 7.368 7.384 6.944 8.32L6.288 7.912C6.704 6.952 7.008 5.928 7.192 4.824ZM12.544 4.952C13 5.896 13.4 6.912 13.736 7.984L13.056 8.288C12.688 7.12 12.272 6.088 11.824 5.184L12.544 4.952ZM21.464 4.008V5.944H20.704V4.736H15.288V5.944H14.536V4.008H15.976C15.72 3.576 15.456 3.192 15.184 2.856L15.872 2.52C16.144 2.888 16.416 3.304 16.672 3.752L16.16 4.008H19.16C19.488 3.512 19.768 2.976 20.008 2.4L20.792 2.688C20.528 3.208 20.264 3.648 19.992 4.008H21.464ZM15.84 5.24H20.168V5.912C19.664 6.24 19.104 6.552 18.48 6.856V7.136H21.464V7.856H18.48V9.08C18.48 9.552 18.224 9.792 17.72 9.792H16.704L16.52 9.104C16.808 9.112 17.12 9.12 17.464 9.12C17.632 9.12 17.72 9.016 17.72 8.816V7.856H14.56V7.136H17.72V6.528C18.28 6.288 18.736 6.08 19.072 5.912H15.84V5.24ZM17.784 2.36C18.048 2.752 18.304 3.184 18.544 3.656L17.864 4C17.624 3.512 17.368 3.08 17.096 2.696L17.784 2.36Z" fill="#FFEFC6"/>
</svg>
