<svg xmlns="http://www.w3.org/2000/svg" fill="none" viewBox="0 0 38 18" class="design-iconfont">
  <path d="M34 0.5C35.9339 0.5 37.5 2.06614 37.5 4V9.06V14C37.5 15.9339 35.9339 17.5 34 17.5H4C2.06614 17.5 0.5 15.9339 0.5 14V4C0.5 2.06614 2.06614 0.5 4 0.5H34Z" fill="#773900" stroke="#FFE4A0"/>
  <path d="M20.49 6.17H17.78V5.15H23.48V6.17H21.55V8.64H23.34V9.61H21.55V12.69H23.69V13.71H17.48V12.69H18.39V7.62H19.41V12.69H20.49V6.17ZM15.81 4.86C16.43 5.35 16.95 5.83 17.39 6.31L16.68 7.04C16.3 6.57 15.77 6.07 15.08 5.55L15.81 4.86ZM14.38 7.74H16.73V11.77C16.99 11.53 17.26 11.28 17.54 11L17.81 12.1C17.2 12.68 16.55 13.21 15.87 13.68L15.47 12.73C15.65 12.59 15.74 12.41 15.74 12.19V8.74H14.38V7.74ZM27.93 4.74H28.98V6.39H31.92V6.89L31.73 9.07H33.12C33.11 11.1 32.94 12.29 32.6 12.63C32.47 12.77 32.26 12.88 31.98 12.94C31.73 12.99 31.48 13.02 31.23 13.03H30.59L30.31 12.05C30.7 12.05 31.07 12.06 31.41 12.06C31.63 12.04 31.8 11.97 31.91 11.84C32.01 11.71 32.07 11.12 32.09 10.08H28.98V14.06H27.93V10.08H24.52V9.07H27.93V7.39H25.1V6.39H27.93V4.74ZM28.98 9.07H30.72L30.87 7.39H28.98V9.07ZM31.45 4.76C32.17 5.1 32.84 5.5 33.44 5.96L32.88 6.83C32.24 6.29 31.58 5.86 30.92 5.55L31.45 4.76Z" fill="#FFE4A0"/>
  <path d="M5.44289 6.88562L5.0286 5.48562C4.88575 5.0142 5.15717 4.52848 5.6286 4.39991C5.71432 4.37134 5.78575 4.37134 5.87146 4.37134H9.84289C10.3286 4.37134 10.7286 4.77134 10.7286 5.25705C10.7286 5.32848 10.7143 5.4142 10.7 5.48562L10.2286 7.19991C10.1143 7.6142 9.71432 7.88562 9.28575 7.84277L6.18575 7.52848C5.8286 7.48562 5.54289 7.22848 5.44289 6.88562Z" fill="#E1A200"/>
  <path d="M10.9143 7.37147L8.18575 5.80004C7.95718 5.67147 7.68575 5.67147 7.45718 5.80004L4.72861 7.37147C4.50003 7.50004 4.35718 7.7429 4.35718 8.01433V11.1715C4.35718 11.4286 4.50003 11.6715 4.72861 11.8143L7.45718 13.3858C7.68575 13.5143 7.95718 13.5143 8.18575 13.3858L10.9143 11.8143C11.1429 11.6858 11.2857 11.4429 11.2857 11.1715V8.00004C11.2857 7.7429 11.1429 7.50004 10.9143 7.37147Z" fill="#FFE4A0"/>
  <path d="M8.15712 8.28569L8.34283 8.65711C8.39998 8.7714 8.51426 8.85711 8.62855 8.8714L9.04283 8.92854C9.25712 8.95711 9.39998 9.15711 9.3714 9.3714C9.35712 9.45711 9.31426 9.52854 9.25712 9.58569L8.95712 9.8714C8.8714 9.95711 8.82855 10.0857 8.84283 10.2143L8.91426 10.6285C8.95712 10.8428 8.81426 11.0428 8.59998 11.0714C8.51426 11.0857 8.42855 11.0714 8.35712 11.0285L7.98569 10.8285C7.8714 10.7714 7.74283 10.7714 7.62855 10.8285L7.25712 11.0285C7.0714 11.1285 6.82855 11.0571 6.72855 10.8714C6.68569 10.8 6.6714 10.7143 6.68569 10.6285L6.75712 10.2143C6.7714 10.0857 6.74283 9.95711 6.64283 9.8714L6.34283 9.58569C6.18569 9.44283 6.18569 9.18569 6.34283 9.04283C6.39998 8.98569 6.48569 8.94283 6.55712 8.92854L6.9714 8.8714C7.09998 8.85711 7.21426 8.7714 7.25712 8.65711L7.44283 8.28569C7.54283 8.09997 7.7714 8.01426 7.95712 8.11426C8.05712 8.14283 8.12855 8.21426 8.15712 8.28569Z" fill="#773900"/>
</svg>
