<?xml version="1.0" standalone="no"?><!DOCTYPE svg PUBLIC "-//W3C//DTD SVG 1.1//EN" "http://www.w3.org/Graphics/SVG/1.1/DTD/svg11.dtd"><svg class="icon" width="200px" height="200.00px" viewBox="0 0 1024 1024" version="1.1" xmlns="http://www.w3.org/2000/svg"><path d="M704 85.312A170.688 170.688 0 0 1 874.688 256v213.312H960v320A170.688 170.688 0 0 1 789.312 960H234.688A170.688 170.688 0 0 1 64 789.312V298.688h85.312V256A170.688 170.688 0 0 1 320 85.312h384zM128 362.688v426.624a106.688 106.688 0 0 0 102.016 106.56l4.672 0.128h554.624a106.688 106.688 0 0 0 106.56-102.016l0.128-4.672v-256h-181.312a213.312 213.312 0 0 1-166.4-79.808L544 448l-19.2-25.6a149.312 149.312 0 0 0-22.208-23.744A213.248 213.248 0 0 0 384 362.688H128z m576-213.376H320a106.688 106.688 0 0 0-106.56 102.08L213.312 256v42.688h192c49.536 0 97.536 17.216 135.744 48.704 22.72 15.616 43.008 34.56 60.16 56.128l4.672 6.08a149.312 149.312 0 0 0 113.6 59.648l5.824 0.064h85.376V256a106.688 106.688 0 0 0-97.344-106.24l-4.736-0.32L704 149.312z" fill="#333333" /><path d="M266.688 725.312h192c21.312 0 32 10.688 32 32 0 21.376-10.688 32-32 32h-192c-21.312 0-32-10.624-32-32 0-21.312 10.688-32 32-32z" fill="#E51600" /></svg>