<svg xmlns="http://www.w3.org/2000/svg" fill="none" viewBox="0 0 33 19" class="design-iconfont">
  <path d="M0 0H25C29.4183 0 33 3.58172 33 8V19H16C7.16345 19 0 11.8366 0 3V0Z" fill="#FFDAA2"/>
  <path d="M2 0H25C29.4183 0 33 3.58172 33 8V17H17C8.71573 17 2 10.2843 2 2V0Z" fill="#FF7A00"/>
  <path d="M10.5 4.73H13.1V3.78H14.04V4.73H16.26V5.22C16.64 4.82 16.99 4.41 17.31 3.99L18.01 4.52C17.49 5.23 16.9 5.88 16.25 6.47H18.42V7.37H15.15C14.74 7.66 14.32 7.94 13.89 8.2H17.87V9.05H12.9L12.62 9.88H17.39C17.32 11.34 17.16 12.2 16.92 12.48C16.68 12.74 16.2 12.88 15.48 12.88C15.01 12.88 14.59 12.85 14.23 12.81L13.92 11.98C14.43 12.02 14.88 12.05 15.28 12.05C15.77 12.05 16.08 11.97 16.21 11.83C16.31 11.67 16.39 11.29 16.45 10.71H11.5L11.93 9.19C11.23 9.49 10.5 9.76 9.73 9.99L9.35 9.14C10.91 8.68 12.29 8.09 13.51 7.37H9.76V6.47H13.1V5.6H10.5V4.73ZM14.84 6.47C15.2 6.19 15.55 5.9 15.87 5.6H14.04V6.47H14.84ZM21.72 8.19V13.03H20.81V8.41C20.52 9.27 20.16 10.07 19.72 10.79L19.33 9.81C19.99 8.87 20.46 7.79 20.76 6.59H19.51V5.68H20.81V3.81H21.72V5.68H22.82V6.59H21.72V7.13C22.18 7.64 22.64 8.21 23.11 8.84L22.58 9.65C22.25 9.07 21.96 8.58 21.72 8.19ZM23.01 4.82H25.38C25.25 4.5 25.11 4.21 24.95 3.95L25.92 3.79C26.06 4.09 26.19 4.44 26.31 4.82H28.49V5.69H25.75C25.26 6.54 24.83 7.16 24.46 7.55C25 7.53 25.54 7.49 26.08 7.44C26.32 7.09 26.54 6.73 26.74 6.35L27.51 6.76C26.51 8.75 25.05 10.1 23.12 10.82L22.6 10.03C23.71 9.64 24.65 9.04 25.42 8.24C24.78 8.28 24.1 8.31 23.39 8.34L23.2 7.57C23.28 7.55 23.34 7.52 23.38 7.49C23.74 7.26 24.2 6.66 24.77 5.69H23.01V4.82ZM26.25 11.11C25.31 11.94 24.22 12.57 22.98 13.01L22.46 12.2C24.78 11.44 26.51 9.99 27.67 7.83L28.46 8.24C28 9.1 27.46 9.87 26.84 10.53C27.52 11.13 28.11 11.72 28.6 12.32L27.9 13.02C27.49 12.42 26.94 11.78 26.25 11.11Z" fill="#fff"/>
</svg>
