<?xml version="1.0" standalone="no"?><!DOCTYPE svg PUBLIC "-//W3C//DTD SVG 1.1//EN" "http://www.w3.org/Graphics/SVG/1.1/DTD/svg11.dtd"><svg class="icon" width="200px" height="200.00px" viewBox="0 0 1024 1024" version="1.1" xmlns="http://www.w3.org/2000/svg"><path d="M768 64a170.688 170.688 0 0 1 170.624 170.688v554.624A170.688 170.688 0 0 1 768 960H256a170.688 170.688 0 0 1-170.688-170.688V234.688A170.688 170.688 0 0 1 256 64h512z m0 64H256a106.688 106.688 0 0 0-106.56 102.016l-0.128 4.672v554.624a106.688 106.688 0 0 0 102.016 106.56L256 896h512a106.624 106.624 0 0 0 106.56-102.016l0.064-4.672V234.688a106.688 106.688 0 0 0-102.016-106.56L768 128z m-90.304 163.648l73.92 42.624-106.688 184.768-79.616 52.544 5.76-95.232 106.624-184.704z m61.12-63.232l36.992 21.312a21.376 21.376 0 0 1 7.808 29.12l-21.376 36.992-73.856-42.688 21.312-36.928a21.312 21.312 0 0 1 29.12-7.808z" fill="#333333" /><path d="M330.688 682.688h362.688a32 32 0 1 1 0 64H330.688a32 32 0 0 1 0-64z m0-170.688H480a32 32 0 0 1 0 64H330.688a32 32 0 0 1 0-64z" fill="#E51600" /></svg>