<?xml version="1.0" standalone="no"?><!DOCTYPE svg PUBLIC "-//W3C//DTD SVG 1.1//EN" "http://www.w3.org/Graphics/SVG/1.1/DTD/svg11.dtd"><svg class="icon" width="200px" height="200.00px" viewBox="0 0 1024 1024" version="1.1" xmlns="http://www.w3.org/2000/svg"><path d="M0 0m512 0l0 0q512 0 512 512l0 0q0 512-512 512l0 0q-512 0-512-512l0 0q0-512 512-512Z" fill="#FDF3F2" /><path d="M704 362.656H320a21.344 21.344 0 0 0-21.344 21.344v277.344c0 11.776 9.568 21.312 21.344 21.312h384a21.344 21.344 0 0 0 21.344-21.312V384a21.344 21.344 0 0 0-21.344-21.344z" fill="#E51600" /><path d="M405.344 288a32 32 0 0 1 32 32v85.344a32 32 0 0 1-64 0V320a32 32 0 0 1 32-32z" fill="#E51600" /><path d="M373.344 501.344a32 32 0 0 1 32-32h117.312a32 32 0 1 1 0 64h-117.312a32 32 0 0 1-32-32zM373.344 586.656a32 32 0 0 1 32-32h213.312a32 32 0 1 1 0 64h-213.312a32 32 0 0 1-32-32z" fill="#FDF3F2" /><path d="M618.656 288a32 32 0 0 1 32 32v85.344a32 32 0 1 1-64 0V320a32 32 0 0 1 32-32z" fill="#E51600" /></svg>