<?xml version="1.0" standalone="no"?><!DOCTYPE svg PUBLIC "-//W3C//DTD SVG 1.1//EN" "http://www.w3.org/Graphics/SVG/1.1/DTD/svg11.dtd"><svg class="icon" width="200px" height="200.00px" viewBox="0 0 1024 1024" version="1.1" xmlns="http://www.w3.org/2000/svg"><path d="M15.515152 15.515152m496.484848 0l0 0q496.484848 0 496.484848 496.484848l0 0q0 496.484848-496.484848 496.484848l0 0q-496.484848 0-496.484848-496.484848l0 0q0-496.484848 496.484848-496.484848Z" fill="#FDF3F2" /><path d="M397.28097 656.818424L305.12097 729.212121V346.515394A20.697212 20.697212 0 0 1 325.818182 325.818182h372.363636a20.666182 20.666182 0 0 1 20.697212 20.697212V636.121212a20.697212 20.697212 0 0 1-20.697212 20.697212h-300.900848z m115.091394-88.963879l69.507878-69.507878a46.545455 46.545455 0 0 0-65.846303-65.784243l-3.661575 3.630546-3.661576-3.661576a46.545455 46.545455 0 0 0-65.815273 65.846303l69.476849 69.476848z" fill="#E51600" /></svg>