<?xml version="1.0" standalone="no"?><!DOCTYPE svg PUBLIC "-//W3C//DTD SVG 1.1//EN" "http://www.w3.org/Graphics/SVG/1.1/DTD/svg11.dtd"><svg class="icon" width="200px" height="200.00px" viewBox="0 0 1024 1024" version="1.1" xmlns="http://www.w3.org/2000/svg"><path d="M670.72 42.688a29.184 29.184 0 0 1 0 42.624l-68.032 64h186.624A170.688 170.688 0 0 1 960 320v469.312A170.688 170.688 0 0 1 789.312 960H234.688A170.688 170.688 0 0 1 64 789.312V320a170.688 170.688 0 0 1 170.688-170.688h186.624l-67.968-64a29.312 29.312 0 0 1 0-42.624 33.088 33.088 0 0 1 45.312 0L512 149.312 625.344 42.688a33.088 33.088 0 0 1 45.312 0z m118.592 170.624H234.688a106.688 106.688 0 0 0-106.56 102.08L128 320v469.312a106.688 106.688 0 0 0 102.016 106.56l4.672 0.128h554.624a106.688 106.688 0 0 0 106.56-102.016l0.128-4.672V320a106.624 106.624 0 0 0-102.016-106.56l-4.672-0.128z" fill="#333333" /><path d="M455.936 405.312C416.256 405.312 384 437.76 384 477.76v153.792a72.704 72.704 0 0 0 32.512 60.608 71.744 71.744 0 0 0 80-0.768l112.064-76.864a72.704 72.704 0 0 0 0-119.68L496.512 417.92a71.68 71.68 0 0 0-40.512-12.608z m0 62.08a10.24 10.24 0 0 1 5.824 1.856l112.064 76.864a10.368 10.368 0 0 1 0 17.088l-112.064 76.928a10.24 10.24 0 0 1-16.064-8.576V477.76a10.24 10.24 0 0 1 10.24-10.368z" fill="#E51600" /></svg>