<?xml version="1.0" standalone="no"?><!DOCTYPE svg PUBLIC "-//W3C//DTD SVG 1.1//EN" "http://www.w3.org/Graphics/SVG/1.1/DTD/svg11.dtd"><svg class="icon" width="200px" height="200.00px" viewBox="0 0 1024 1024" version="1.1" xmlns="http://www.w3.org/2000/svg"><path d="M618.688 704h-64V170.688A85.312 85.312 0 0 1 640 85.312h149.312A170.688 170.688 0 0 1 960 256v426.688a170.688 170.688 0 0 1-170.688 170.624h-128L567.552 933.76a85.312 85.312 0 0 1-111.104 0l-93.76-80.448h-128A170.688 170.688 0 0 1 64 682.688V256a170.688 170.688 0 0 1 170.688-170.688h192v64h-192a106.688 106.688 0 0 0-106.56 102.08L128 256v426.688a106.688 106.688 0 0 0 102.016 106.56l4.672 0.064h151.68l111.744 95.808a21.312 21.312 0 0 0 25.728 1.6l2.048-1.6 111.744-95.808h151.68a106.688 106.688 0 0 0 106.56-102.016l0.128-4.608V256a106.624 106.624 0 0 0-102.016-106.56l-4.672-0.128h-128A42.688 42.688 0 0 0 618.688 192v512z" fill="#333333" /><path d="M245.312 341.312H288a32 32 0 0 1 0 64h-42.688a32 32 0 1 1 0-64z m0 128h149.312a32 32 0 1 1 0 64H245.312a32 32 0 1 1 0-64z" fill="#E51600" /></svg>