<svg xmlns="http://www.w3.org/2000/svg" fill="none" viewBox="0 0 80 80" class="design-iconfont">
  <g filter="url(#bkshj6e6v__filter0_d_2617_10317)">
    <path fill="#FF7D00" d="M40 11.4284A27.1429 27.1429 0 1 0 40 65.7142A27.1429 27.1429 0 1 0 40 11.4284Z"/>
  </g>
  <path d="M40 42.4162V27" stroke="#fff" stroke-width="5.33958" stroke-linecap="round" stroke-linejoin="round"/>
  <path d="M40 53V52" stroke="#fff" stroke-width="5.33958" stroke-linecap="round" stroke-linejoin="round"/>
  <path d="M60.8112 0.671388C60.7727 0.551014 60.6969 0.446 60.5947 0.371493C60.4926 0.296985 60.3695 0.256836 60.2431 0.256836C60.1167 0.256836 59.9936 0.296985 59.8915 0.371493C59.7894 0.446 59.7136 0.551014 59.675 0.671388L58.7913 3.56119L55.9029 4.45879C55.7825 4.49512 55.677 4.56924 55.602 4.67019C55.5271 4.77113 55.4866 4.89353 55.4866 5.01927C55.4866 5.14501 55.5271 5.26741 55.602 5.36835C55.677 5.46929 55.7825 5.54342 55.9029 5.57975L58.7913 6.47735L59.675 9.36715C59.7037 9.45863 59.7538 9.54196 59.8211 9.61024C59.8884 9.67852 59.971 9.72977 60.0621 9.75976C60.1366 9.78389 60.2153 9.79284 60.2934 9.78607C60.3715 9.77931 60.4474 9.75696 60.5167 9.72037C60.586 9.68377 60.6473 9.63366 60.6969 9.573C60.7466 9.51233 60.7835 9.44234 60.8057 9.36715L61.6963 6.47735L64.5847 5.57975C64.7075 5.54599 64.8158 5.47287 64.8929 5.37161C64.9701 5.27036 65.0119 5.14657 65.0119 5.01927C65.0119 4.89196 64.9701 4.76818 64.8929 4.66692C64.8158 4.56567 64.7075 4.49255 64.5847 4.45879L61.7019 3.56119L60.8112 0.671388ZM60.6558 4.21323L60.2396 2.86753L59.8234 4.21323C59.7941 4.30582 59.7434 4.39021 59.6754 4.45961C59.6075 4.52901 59.5242 4.58147 59.4322 4.61278L58.0851 5.01927L59.4322 5.43547C59.5241 5.46274 59.6078 5.51218 59.676 5.57944C59.7442 5.64669 59.7949 5.7297 59.8234 5.82114L60.2396 7.17517L60.6558 5.82114C60.6857 5.73017 60.7369 5.64768 60.8053 5.58057C60.8736 5.51347 60.957 5.46371 61.0485 5.43547L62.4025 5.01927L61.0498 4.61278C60.9577 4.58146 60.8743 4.52901 60.8061 4.45963C60.7379 4.39025 60.6869 4.30586 60.6572 4.21323H60.6558Z" fill="#FF7D00"/>
  <path d="M72.0418 11.6219C72.0211 11.5572 71.9804 11.5008 71.9256 11.4608C71.8707 11.4207 71.8045 11.3992 71.7366 11.3992C71.6687 11.3992 71.6026 11.4207 71.5477 11.4608C71.4929 11.5008 71.4521 11.5572 71.4314 11.6219L70.9556 13.1757L69.4018 13.6585C69.3368 13.6779 69.2799 13.7178 69.2394 13.7721C69.1989 13.8265 69.177 13.8925 69.177 13.9603C69.177 14.0281 69.1989 14.094 69.2394 14.1484C69.2799 14.2028 69.3368 14.2426 69.4018 14.262L70.9556 14.7448L71.4314 16.2986C71.4469 16.3477 71.4738 16.3925 71.51 16.4292C71.5462 16.4658 71.5906 16.4934 71.6395 16.5095C71.6796 16.5223 71.7218 16.527 71.7637 16.5233C71.8056 16.5196 71.8464 16.5076 71.8836 16.488C71.9208 16.4683 71.9537 16.4415 71.9804 16.409C72.0071 16.3764 72.027 16.3389 72.0391 16.2986L72.5232 14.7448L74.077 14.262C74.1436 14.2444 74.2025 14.2052 74.2445 14.1506C74.2865 14.0961 74.3093 14.0291 74.3093 13.9603C74.3093 13.8914 74.2865 13.8245 74.2445 13.7699C74.2025 13.7153 74.1436 13.6762 74.077 13.6585L72.5232 13.1757L72.0446 11.6219H72.0418ZM71.9586 13.5253L71.7366 12.8012L71.5133 13.5253C71.4975 13.5752 71.4702 13.6207 71.4335 13.6581C71.3969 13.6954 71.352 13.7236 71.3024 13.7404L70.5782 13.9596L71.3024 14.1857C71.3518 14.2002 71.3969 14.2266 71.4337 14.2627C71.4705 14.2987 71.4978 14.3433 71.5133 14.3924L71.7366 15.1208L71.9586 14.3924C71.9747 14.3436 72.0023 14.2994 72.0389 14.2635C72.0756 14.2275 72.1204 14.2008 72.1695 14.1857L72.8978 13.9596L72.1695 13.7459C72.12 13.7291 72.0751 13.7008 72.0385 13.6635C72.0018 13.6261 71.9745 13.5807 71.9586 13.5309V13.5253Z" fill="#FF7D00"/>
  <path d="M11.4376 60.3778C11.4169 60.3131 11.3762 60.2567 11.3213 60.2166C11.2665 60.1766 11.2003 60.155 11.1324 60.155C11.0645 60.155 10.9983 60.1766 10.9435 60.2166C10.8886 60.2567 10.8479 60.3131 10.8272 60.3778L10.3513 61.9316L8.79752 62.4144C8.73257 62.4338 8.67562 62.4736 8.63512 62.528C8.59463 62.5824 8.57275 62.6483 8.57275 62.7161C8.57275 62.7839 8.59463 62.8499 8.63512 62.9043C8.67562 62.9586 8.73257 62.9985 8.79752 63.0179L10.3513 63.5007L10.8272 65.0545C10.8426 65.1036 10.8696 65.1484 10.9058 65.185C10.942 65.2217 10.9864 65.2492 11.0353 65.2653C11.0754 65.2782 11.1176 65.2829 11.1595 65.2792C11.2014 65.2755 11.2421 65.2635 11.2793 65.2438C11.3166 65.2242 11.3495 65.1973 11.3762 65.1648C11.4029 65.1323 11.4228 65.0948 11.4348 65.0545L11.919 63.5007L13.4728 63.0179C13.5394 63.0002 13.5983 62.9611 13.6403 62.9065C13.6823 62.8519 13.705 62.785 13.705 62.7161C13.705 62.6473 13.6823 62.5803 13.6403 62.5257C13.5983 62.4712 13.5394 62.432 13.4728 62.4144L11.919 61.9316L11.4404 60.3778H11.4376ZM11.3544 62.2812L11.1324 61.557L10.909 62.2812C10.8933 62.3311 10.8659 62.3766 10.8293 62.4139C10.7927 62.4513 10.7477 62.4795 10.6982 62.4962L9.97398 62.7154L10.6982 62.9416C10.7476 62.9561 10.7927 62.9825 10.8295 63.0185C10.8662 63.0546 10.8936 63.0992 10.909 63.1483L11.1324 63.8766L11.3544 63.1483C11.3705 63.0995 11.398 63.0553 11.4347 63.0193C11.4714 62.9833 11.5161 62.9567 11.5652 62.9416L12.2936 62.7154L11.5652 62.5018C11.5157 62.4849 11.4708 62.4567 11.4342 62.4194C11.3976 62.382 11.3702 62.3366 11.3544 62.2867V62.2812Z" fill="#FF7D00"/>
  <defs>
    <filter id="bkshj6e6v__filter0_d_2617_10317" x="5.73774" y="9.64861" width="68.5245" height="68.5245" filterUnits="userSpaceOnUse" color-interpolation-filters="sRGB">
      <feFlood flood-opacity="0" result="BackgroundImageFix"/>
      <feColorMatrix in="SourceAlpha" values="0 0 0 0 0 0 0 0 0 0 0 0 0 0 0 0 0 0 127 0" result="hardAlpha"/>
      <feOffset dy="5.33958"/>
      <feGaussianBlur stdDeviation="3.55972"/>
      <feComposite in2="hardAlpha" operator="out"/>
      <feColorMatrix values="0 0 0 0 1 0 0 0 0 0.490196 0 0 0 0 0 0 0 0 0.2 0"/>
      <feBlend in2="BackgroundImageFix" result="effect1_dropShadow_2617_10317"/>
      <feBlend in="SourceGraphic" in2="effect1_dropShadow_2617_10317" result="shape"/>
    </filter>
  </defs>
</svg>
