<?xml version="1.0" standalone="no"?><!DOCTYPE svg PUBLIC "-//W3C//DTD SVG 1.1//EN" "http://www.w3.org/Graphics/SVG/1.1/DTD/svg11.dtd"><svg class="icon" width="200px" height="200.00px" viewBox="0 0 1024 1024" version="1.1" xmlns="http://www.w3.org/2000/svg"><path d="M768 85.312V403.84a43.52 43.52 0 0 1-42.624 44.224 41.6 41.6 0 0 1-22.656-6.72l-93.76-60.8a21.312 21.312 0 0 0-23.232 0l-93.76 60.8a41.792 41.792 0 0 1-58.816-14.08 45.44 45.44 0 0 1-6.464-23.424V85.312H768zM704 151.68H490.688v212.16l95.04-61.632a21.312 21.312 0 0 1 23.232 0L704 363.84V151.68z" fill="#E51600" /><path d="M74.688 938.688a32 32 0 0 1 0-64h32V256a170.688 170.688 0 0 1 170.688-170.688h469.312A170.688 170.688 0 0 1 917.376 256v618.688h32a32 32 0 0 1 0 64H74.688z m672-789.376H277.376a106.688 106.688 0 0 0-106.56 102.08L170.688 256v618.688h682.688V256a106.688 106.688 0 0 0-102.08-106.56l-4.608-0.128z" fill="#333333" /></svg>