<?xml version="1.0" standalone="no"?><!DOCTYPE svg PUBLIC "-//W3C//DTD SVG 1.1//EN" "http://www.w3.org/Graphics/SVG/1.1/DTD/svg11.dtd"><svg height="1024" node-id="1" sillyvg="true" template-height="1024" template-width="1024" version="1.1" viewBox="0 0 1024 1024" width="1024" xmlns="http://www.w3.org/2000/svg" xmlns:xlink="http://www.w3.org/1999/xlink"><defs node-id="142"><linearGradient gradientUnits="userSpaceOnUse" id="paint0_linear_105_138" node-id="68" spreadMethod="pad" x1="255.806" x2="255.806" y1="264.768" y2="7.31241"><stop offset="0" stop-color="#f7f7f7" stop-opacity="0"></stop><stop offset="1" stop-color="#ebebeb"></stop></linearGradient><linearGradient gradientUnits="userSpaceOnUse" id="paint1_linear_105_138" node-id="71" spreadMethod="pad" x1="817.541" x2="817.541" y1="441.162" y2="301.902"><stop offset="0" stop-color="#ffffff" stop-opacity="0"></stop><stop offset="1" stop-color="#e4e4e6"></stop></linearGradient><linearGradient gradientUnits="userSpaceOnUse" id="paint2_linear_105_138" node-id="74" spreadMethod="pad" x1="511.586" x2="512.036" y1="536.798" y2="856.103"><stop offset="0" stop-color="#f0f0f0"></stop><stop offset="1" stop-color="#fefefe" stop-opacity="0"></stop></linearGradient><linearGradient gradientUnits="userSpaceOnUse" id="paint3_linear_105_138" node-id="77" spreadMethod="pad" x1="304.432" x2="368.968" y1="552.001" y2="652.459"><stop offset="0" stop-color="#d7d7d7" stop-opacity="0.09"></stop><stop offset="1" stop-color="#a49d9d"></stop></linearGradient><linearGradient gradientUnits="userSpaceOnUse" id="paint4_linear_105_138" node-id="80" spreadMethod="pad" x1="363.243" x2="427.779" y1="583.749" y2="684.207"><stop offset="0" stop-color="#d0d1d1" stop-opacity="0.09"></stop><stop offset="1" stop-color="#a0a0a0"></stop></linearGradient><linearGradient gradientUnits="userSpaceOnUse" id="paint5_linear_105_138" node-id="83" spreadMethod="pad" x1="285.3" x2="192.865" y1="788.553" y2="788.553"><stop offset="0" stop-color="#bcbcbd"></stop><stop offset="1" stop-color="#f1f1f1"></stop></linearGradient><linearGradient gradientUnits="userSpaceOnUse" id="paint6_linear_105_138" node-id="86" spreadMethod="pad" x1="281.396" x2="279.787" y1="711.565" y2="821.583"><stop offset="0" stop-color="#cbcbcb"></stop><stop offset="1" stop-color="#cecdcd"></stop></linearGradient><linearGradient gradientUnits="userSpaceOnUse" id="paint7_linear_105_138" node-id="89" spreadMethod="pad" x1="280.026" x2="280.151" y1="635.983" y2="754.918"><stop offset="0" stop-color="#f1f1f1"></stop><stop offset="1" stop-color="#dfdfdf"></stop></linearGradient><linearGradient gradientUnits="userSpaceOnUse" id="paint8_linear_105_138" node-id="92" spreadMethod="pad" x1="189.295" x2="114.833" y1="654.771" y2="654.771"><stop offset="0" stop-color="#bcbcbd"></stop><stop offset="1" stop-color="#f1f1f1"></stop></linearGradient><linearGradient gradientUnits="userSpaceOnUse" id="paint9_linear_105_138" node-id="95" spreadMethod="pad" x1="186.6" x2="186.682" y1="595.189" y2="657.548"><stop offset="0" stop-color="#cacaca"></stop><stop offset="1" stop-color="#dedede"></stop></linearGradient><linearGradient gradientUnits="userSpaceOnUse" id="paint10_linear_105_138" node-id="98" spreadMethod="pad" x1="185.741" x2="185.826" y1="533.934" y2="615.311"><stop offset="0" stop-color="#ededed"></stop><stop offset="1" stop-color="#dedede"></stop></linearGradient><linearGradient gradientUnits="userSpaceOnUse" id="paint11_linear_105_138" node-id="101" spreadMethod="pad" x1="926.353" x2="872.433" y1="700.696" y2="700.696"><stop offset="0" stop-color="#bcbcbd"></stop><stop offset="1" stop-color="#f1f1f1"></stop></linearGradient><linearGradient gradientUnits="userSpaceOnUse" id="paint12_linear_105_138" node-id="104" spreadMethod="pad" x1="924.824" x2="924.884" y1="655.18" y2="701.075"><stop offset="0" stop-color="#b4b4b4"></stop><stop offset="1" stop-color="#cecdcd"></stop></linearGradient><linearGradient gradientUnits="userSpaceOnUse" id="paint13_linear_105_138" node-id="107" spreadMethod="pad" x1="923.488" x2="923.606" y1="559.635" y2="666.051"><stop offset="0" stop-color="#f5f5f5"></stop><stop offset="1" stop-color="#e1e0e0"></stop></linearGradient><linearGradient gradientUnits="userSpaceOnUse" id="paint14_linear_105_138" node-id="110" spreadMethod="pad" x1="435.892" x2="304.432" y1="249.446" y2="249.446"><stop offset="0" stop-color="#c5c6c8"></stop><stop offset="1" stop-color="#f0f0f0"></stop></linearGradient><linearGradient gradientUnits="userSpaceOnUse" id="paint15_linear_105_138" node-id="113" spreadMethod="pad" x1="387.318" x2="723.595" y1="449.443" y2="449.443"><stop offset="0" stop-color="#f9f9f9"></stop><stop offset="1" stop-color="#f3f3f3"></stop></linearGradient><linearGradient gradientUnits="userSpaceOnUse" id="paint16_linear_105_138" node-id="116" spreadMethod="pad" x1="462.602" x2="643.288" y1="342.664" y2="342.664"><stop offset="0" stop-color="#d3d3d3"></stop><stop offset="0.34375" stop-color="#dddddd"></stop><stop offset="1" stop-color="#ececec"></stop></linearGradient><linearGradient gradientUnits="userSpaceOnUse" id="paint17_linear_105_138" node-id="120" spreadMethod="pad" x1="462.602" x2="643.288" y1="403.68" y2="403.68"><stop offset="0" stop-color="#d6d5d5"></stop><stop offset="0.34375" stop-color="#e6e6e6"></stop><stop offset="1" stop-color="#d9d9d9"></stop></linearGradient><linearGradient gradientUnits="userSpaceOnUse" id="paint18_linear_105_138" node-id="124" spreadMethod="pad" x1="462.602" x2="643.288" y1="464.694" y2="464.694"><stop offset="0" stop-color="#d3d3d3"></stop><stop offset="0.34375" stop-color="#e6e6e6"></stop><stop offset="1" stop-color="#d9d9d9"></stop></linearGradient><linearGradient gradientUnits="userSpaceOnUse" id="paint19_linear_105_138" node-id="128" spreadMethod="pad" x1="462.602" x2="643.288" y1="525.712" y2="525.712"><stop offset="0" stop-color="#dcdcdc"></stop><stop offset="0.34375" stop-color="#e6e6e6"></stop><stop offset="1" stop-color="#d9d9d9"></stop></linearGradient><linearGradient gradientUnits="userSpaceOnUse" id="paint20_linear_105_138" node-id="132" spreadMethod="pad" x1="625.116" x2="624.469" y1="565.583" y2="670.627"><stop offset="0" stop-color="#ebebeb"></stop><stop offset="1" stop-color="#efefef" stop-opacity="0"></stop></linearGradient><linearGradient gradientUnits="userSpaceOnUse" id="paint21_linear_105_138" node-id="135" spreadMethod="pad" x1="808.714" x2="688.739" y1="648.834" y2="567.866"><stop offset="0" stop-color="#e8e8e8"></stop><stop offset="1" stop-color="#c9cbce"></stop></linearGradient><linearGradient gradientUnits="userSpaceOnUse" id="paint22_linear_105_138" node-id="138" spreadMethod="pad" x1="560.853" x2="677.534" y1="435.627" y2="552.307"><stop offset="0" stop-color="#ffffff" stop-opacity="0.635708"></stop><stop offset="1" stop-color="#ffffff" stop-opacity="0.0974377"></stop></linearGradient><filter height="107.153" id="filter0_f_105_138" node-id="35" width="132.988" x="260.425" y="546.047"><feFlood color-interpolation-filters="sRGB" flood-color="#000000" flood-opacity="0" result="BackgroundImageFix"></feFlood><feBlend color-interpolation-filters="sRGB" in="SourceGraphic" in2="BackgroundImageFix" mode="normal" result="shape"></feBlend><feGaussianBlur color-interpolation-filters="sRGB" in="shape" result="effect1_foregroundBlur_105_138" stdDeviation="2.97674 2.97674"></feGaussianBlur></filter><filter height="69.0546" id="filter1_f_105_138" node-id="39" width="101.853" x="343.452" y="609.544"><feFlood color-interpolation-filters="sRGB" flood-color="#000000" flood-opacity="0" result="BackgroundImageFix"></feFlood><feBlend color-interpolation-filters="sRGB" in="SourceGraphic" in2="BackgroundImageFix" mode="normal" result="shape"></feBlend><feGaussianBlur color-interpolation-filters="sRGB" in="shape" result="effect1_foregroundBlur_105_138" stdDeviation="2.97674 2.97674"></feGaussianBlur></filter><filter height="44.6496" id="filter2_f_105_138" node-id="43" width="140.574" x="167.985" y="764.74"><feFlood color-interpolation-filters="sRGB" flood-color="#000000" flood-opacity="0" result="BackgroundImageFix"></feFlood><feBlend color-interpolation-filters="sRGB" in="SourceGraphic" in2="BackgroundImageFix" mode="normal" result="shape"></feBlend><feGaussianBlur color-interpolation-filters="sRGB" in="shape" result="effect1_foregroundBlur_105_138" stdDeviation="5.95349 5.95349"></feGaussianBlur></filter><filter height="38.6965" id="filter3_f_105_138" node-id="47" width="117.871" x="92.4756" y="634.36"><feFlood color-interpolation-filters="sRGB" flood-color="#000000" flood-opacity="0" result="BackgroundImageFix"></feFlood><feBlend color-interpolation-filters="sRGB" in="SourceGraphic" in2="BackgroundImageFix" mode="normal" result="shape"></feBlend><feGaussianBlur color-interpolation-filters="sRGB" in="shape" result="effect1_foregroundBlur_105_138" stdDeviation="5.95349 5.95349"></feGaussianBlur></filter><filter height="35.7201" id="filter4_f_105_138" node-id="51" width="91.9241" x="852.958" y="681.986"><feFlood color-interpolation-filters="sRGB" flood-color="#000000" flood-opacity="0" result="BackgroundImageFix"></feFlood><feBlend color-interpolation-filters="sRGB" in="SourceGraphic" in2="BackgroundImageFix" mode="normal" result="shape"></feBlend><feGaussianBlur color-interpolation-filters="sRGB" in="shape" result="effect1_foregroundBlur_105_138" stdDeviation="5.95349 5.95349"></feGaussianBlur></filter><filter height="30.8093" id="filter5_f_105_138" node-id="55" width="313.383" x="398.803" y="654.14"><feFlood color-interpolation-filters="sRGB" flood-color="#000000" flood-opacity="0" result="BackgroundImageFix"></feFlood><feBlend color-interpolation-filters="sRGB" in="SourceGraphic" in2="BackgroundImageFix" mode="normal" result="shape"></feBlend><feGaussianBlur color-interpolation-filters="sRGB" in="shape" result="effect1_foregroundBlur_105_138" stdDeviation="2.97674 2.97674"></feGaussianBlur></filter><filter height="205.742" id="filter6_d_105_138" node-id="59" width="205.742" x="516.064" y="390.838"><feFlood color-interpolation-filters="sRGB" flood-color="#000000" flood-opacity="0" result="BackgroundImageFix"></feFlood><feColorMatrix color-interpolation-filters="sRGB" in="SourceAlpha" result="hardAlpha" type="matrix" values="0 0 0 0 0 0 0 0 0 0 0 0 0 0 0 0 0 0 127 0"></feColorMatrix><feOffset color-interpolation-filters="sRGB" dx="0" dy="0" in="hardAlpha" result="result3"></feOffset><feGaussianBlur color-interpolation-filters="sRGB" in="result3" result="result4" stdDeviation="10 10"></feGaussianBlur><feComposite color-interpolation-filters="sRGB" in="result4" in2="hardAlpha" operator="out" result="result5"></feComposite><feColorMatrix color-interpolation-filters="sRGB" in="result5" result="result6" type="matrix" values="0 0 0 0 0 0 0 0 0 0 0 0 0 0 0 0 0 0 0.1 0"></feColorMatrix><feBlend color-interpolation-filters="sRGB" in="result6" in2="BackgroundImageFix" mode="normal" result="effect1_dropShadow_105_138"></feBlend><feBlend color-interpolation-filters="sRGB" in="SourceGraphic" in2="effect1_dropShadow_105_138" mode="normal" result="shape"></feBlend></filter></defs><path d="M 212.63 228.58 C 231.60 228.58 248.93 221.89 262.14 210.86 C 272.14 227.75 290.31 239.04 311.07 239.04 C 315.12 239.04 319.07 238.61 322.89 237.79 C 336.41 254.28 356.73 264.77 379.46 264.77 C 420.16 264.77 453.16 231.12 453.16 189.61 C 453.16 148.11 420.16 114.46 379.46 114.46 C 363.38 114.46 348.51 119.71 336.40 128.61 C 328.76 124.75 320.16 122.59 311.07 122.59 C 300.51 122.59 290.63 125.50 282.15 130.59 C 271.00 104.54 244.07 86.16 212.63 86.16 C 171.20 86.16 149.53 106.37 149.53 145.70 C 84.04 145.70 101.90 291.56 212.63 228.58 Z" fill="url(#paint0_linear_105_138)" fill-rule="nonzero" node-id="357" stroke="none" target-height="205.3952" target-width="369.1167" target-x="84.0423" target-y="86.1628"></path><path d="M 790.62 439.33 C 806.90 439.33 821.26 431.12 829.79 418.62 C 832.50 419.37 835.35 419.77 838.30 419.77 C 839.51 419.77 840.71 419.70 841.89 419.57 C 848.83 432.43 862.43 441.16 878.07 441.16 C 900.77 441.16 919.17 422.76 919.17 400.07 C 919.17 377.37 900.77 358.97 878.07 358.97 C 871.16 358.97 864.65 360.68 858.94 363.69 C 853.38 358.95 846.17 356.09 838.30 356.09 C 833.46 356.09 828.88 357.17 824.78 359.09 C 816.15 350.13 804.04 344.55 790.62 344.55 C 764.45 344.55 743.23 365.77 743.23 391.94 C 743.23 418.11 764.45 439.33 790.62 439.33 Z" fill="url(#paint1_linear_105_138)" fill-rule="nonzero" node-id="359" stroke="none" target-height="96.60898" target-width="175.93597" target-x="743.231" target-y="344.553"></path><path d="M 1024.00 769.43 C 1024.00 853.42 794.76 856.79 512.00 856.79 C 229.25 856.79 -0.59 856.79 0.00 769.43 C 0.71 638.83 229.22 532.95 512.00 532.95 C 794.78 532.95 1024.00 638.83 1024.00 769.43 Z" fill="url(#paint2_linear_105_138)" fill-rule="nonzero" node-id="361" stroke="none" target-height="323.83698" target-width="1024.5914" target-x="-0.591449" target-y="532.952"></path><g node-id="427"><path d="M 349.40 640.90 L 387.46 647.25 L 366.70 599.62 L 335.57 552.00 L 266.38 567.88 L 280.22 580.58 L 349.40 640.90 Z" fill="url(#paint3_linear_105_138)" fill-rule="nonzero" filter="url(#filter0_f_105_138)" group-id="1" node-id="365" stroke="none" target-height="95.24603" target-width="121.081024" target-x="266.378" target-y="552.001"></path></g><g node-id="428"><path d="M 408.22 672.64 L 439.35 672.64 L 425.51 631.37 L 408.22 615.50 L 349.40 615.50 L 356.32 631.37 L 373.62 653.60 L 408.22 672.64 Z" fill="url(#paint4_linear_105_138)" fill-rule="nonzero" filter="url(#filter1_f_105_138)" group-id="2" node-id="370" stroke="none" target-height="57.147034" target-width="89.946014" target-x="349.405" target-y="615.498"></path></g><g node-id="429"><path d="M 296.65 787.07 C 296.65 792.82 270.51 797.48 238.27 797.48 C 206.03 797.48 179.89 792.82 179.89 787.07 C 179.89 781.31 206.03 776.65 238.27 776.65 C 270.51 776.65 296.65 781.31 296.65 787.07 Z" fill="url(#paint5_linear_105_138)" fill-opacity="0.6" fill-rule="nonzero" filter="url(#filter2_f_105_138)" group-id="3" node-id="375" stroke="none" target-height="20.835571" target-width="116.76019" target-x="179.8919" target-y="776.6472"></path></g><path d="M 289.45 717.98 C 289.45 713.92 285.87 710.63 281.46 710.63 C 277.04 710.63 273.46 713.92 273.46 717.98 L 273.46 783.02 C 273.46 787.08 277.04 790.37 281.46 790.37 C 285.87 790.37 289.45 787.08 289.45 783.02 L 289.45 717.98 Z" fill="url(#paint6_linear_105_138)" fill-rule="nonzero" node-id="378" stroke="none" target-height="79.74097" target-width="15.988983" target-x="273.463" target-y="710.627"></path><path d="M 325.19 701.97 C 325.19 735.28 305.05 755.19 280.22 755.19 C 255.38 755.19 235.24 735.28 235.24 701.97 C 235.24 668.65 263.86 634.55 280.22 634.55 C 296.57 634.55 325.19 668.65 325.19 701.97 Z" fill="url(#paint7_linear_105_138)" fill-rule="nonzero" node-id="380" stroke="none" target-height="120.64502" target-width="89.946" target-x="235.243" target-y="634.547"></path><path d="M 198.44 653.71 C 198.44 657.82 177.38 661.15 151.41 661.15 C 125.44 661.15 104.38 657.82 104.38 653.71 C 104.38 649.60 125.44 646.27 151.41 646.27 C 177.38 646.27 198.44 649.60 198.44 653.71 Z" fill="url(#paint8_linear_105_138)" fill-opacity="0.6" fill-rule="nonzero" filter="url(#filter3_f_105_138)" group-id="4" node-id="384" stroke="none" target-height="14.882629" target-width="94.05681" target-x="104.3826" target-y="646.26666"></path><path d="M 192.99 600.28 C 192.99 597.06 190.15 594.45 186.65 594.45 C 183.15 594.45 180.31 597.06 180.31 600.28 L 180.31 651.86 C 180.31 655.08 183.15 657.70 186.65 657.70 C 190.15 657.70 192.99 655.08 192.99 651.86 L 192.99 600.28 Z" fill="url(#paint9_linear_105_138)" fill-rule="nonzero" node-id="387" stroke="none" target-height="63.250977" target-width="12.682007" target-x="180.308" target-y="594.445"></path><path d="M 217.01 579.08 C 217.01 601.88 203.07 615.50 185.87 615.50 C 168.68 615.50 154.74 601.88 154.74 579.08 C 154.74 556.29 174.55 532.95 185.87 532.95 C 197.19 532.95 217.01 556.29 217.01 579.08 Z" fill="url(#paint10_linear_105_138)" fill-rule="nonzero" node-id="389" stroke="none" target-height="82.54596" target-width="62.270996" target-x="154.737" target-y="532.952"></path><path d="M 932.98 699.85 C 932.98 703.13 917.73 705.80 898.92 705.80 C 880.11 705.80 864.87 703.13 864.87 699.85 C 864.87 696.56 880.11 693.89 898.92 693.89 C 917.73 693.89 932.98 696.56 932.98 699.85 Z" fill="url(#paint11_linear_105_138)" fill-opacity="0.6" fill-rule="nonzero" filter="url(#filter4_f_105_138)" group-id="5" node-id="393" stroke="none" target-height="11.906128" target-width="68.109985" target-x="864.865" target-y="693.89294"></path><path d="M 929.53 658.92 C 929.53 656.55 927.44 654.63 924.86 654.63 C 922.28 654.63 920.19 656.55 920.19 658.92 L 920.19 696.90 C 920.19 699.27 922.28 701.18 924.86 701.18 C 927.44 701.18 929.53 699.27 929.53 696.90 L 929.53 658.92 Z" fill="url(#paint12_linear_105_138)" fill-rule="nonzero" node-id="396" stroke="none" target-height="46.55298" target-width="9.341003" target-x="920.189" target-y="654.632"></path><path d="M 961.70 618.67 C 961.70 648.48 944.66 666.30 923.65 666.30 C 902.63 666.30 885.59 648.48 885.59 618.67 C 885.59 588.86 909.81 558.35 923.65 558.35 C 937.49 558.35 961.70 588.86 961.70 618.67 Z" fill="url(#paint13_linear_105_138)" fill-rule="nonzero" node-id="398" stroke="none" target-height="107.946045" target-width="76.10901" target-x="885.594" target-y="558.35"></path><path d="M 404.76 669.47 L 706.23 660.09 L 689.86 673.86 L 415.13 679.00 L 404.76 669.47 Z" fill="#8d8e91" fill-opacity="0.35" fill-rule="nonzero" filter="url(#filter5_f_105_138)" group-id="6" node-id="402" stroke="none" target-height="18.901978" target-width="301.47598" target-x="404.757" target-y="660.093"></path><path d="M 367.83 251.14 L 632.66 251.14 C 652.39 251.14 668.38 267.13 668.38 286.86 L 668.38 606.94 C 668.38 626.67 652.39 642.66 632.66 642.66 L 367.83 642.66 C 348.10 642.66 332.11 626.67 332.11 606.94 L 332.11 286.86 C 332.11 267.13 348.10 251.14 367.83 251.14 Z" fill="url(#paint14_linear_105_138)" fill-rule="nonzero" node-id="405" stroke="none" target-height="391.51898" target-width="336.277" target-x="332.108" target-y="251.141"></path><path d="M 423.04 225.72 L 687.87 225.72 C 707.60 225.72 723.60 241.71 723.60 261.44 L 723.60 637.45 C 723.60 657.18 707.60 673.17 687.87 673.17 L 423.04 673.17 C 403.31 673.17 387.32 657.18 387.32 637.45 L 387.32 261.44 C 387.32 241.71 403.31 225.72 423.04 225.72 Z" fill="url(#paint15_linear_105_138)" fill-rule="nonzero" node-id="407" stroke="none" target-height="447.45" target-width="336.27698" target-x="387.318" target-y="225.718"></path><path d="M 472.77 332.50 L 633.12 332.50 C 638.74 332.50 643.29 337.05 643.29 342.66 L 643.29 342.66 C 643.29 348.28 638.74 352.83 633.12 352.83 L 472.77 352.83 C 467.15 352.83 462.60 348.28 462.60 342.66 L 462.60 342.66 C 462.60 337.05 467.15 332.50 472.77 332.50 Z" fill="url(#paint16_linear_105_138)" fill-rule="nonzero" node-id="409" stroke="none" target-height="20.338593" target-width="180.68604" target-x="462.602" target-y="332.495"></path><path d="M 472.77 393.51 L 633.12 393.51 C 638.74 393.51 643.29 398.06 643.29 403.68 L 643.29 403.68 C 643.29 409.30 638.74 413.85 633.12 413.85 L 472.77 413.85 C 467.15 413.85 462.60 409.30 462.60 403.68 L 462.60 403.68 C 462.60 398.06 467.15 393.51 472.77 393.51 Z" fill="url(#paint17_linear_105_138)" fill-rule="nonzero" node-id="411" stroke="none" target-height="20.338623" target-width="180.68604" target-x="462.602" target-y="393.511"></path><path d="M 472.77 454.52 L 633.12 454.52 C 638.74 454.52 643.29 459.08 643.29 464.69 L 643.29 464.69 C 643.29 470.31 638.74 474.86 633.12 474.86 L 472.77 474.86 C 467.15 474.86 462.60 470.31 462.60 464.69 L 462.60 464.69 C 462.60 459.08 467.15 454.52 472.77 454.52 Z" fill="url(#paint18_linear_105_138)" fill-rule="nonzero" node-id="413" stroke="none" target-height="20.338593" target-width="180.68604" target-x="462.602" target-y="454.525"></path><path d="M 472.77 515.54 L 633.12 515.54 C 638.74 515.54 643.29 520.09 643.29 525.71 L 643.29 525.71 C 643.29 531.33 638.74 535.88 633.12 535.88 L 472.77 535.88 C 467.15 535.88 462.60 531.33 462.60 525.71 L 462.60 525.71 C 462.60 520.09 467.15 515.54 472.77 515.54 Z" fill="url(#paint19_linear_105_138)" fill-rule="nonzero" node-id="415" stroke="none" target-height="20.338623" target-width="180.68604" target-x="462.602" target-y="515.542"></path><path d="M 497.74 670.63 L 543.00 564.00 L 615.00 588.00 L 675.00 564.00 L 751.20 670.63 L 497.74 670.63 Z" fill="url(#paint20_linear_105_138)" fill-rule="nonzero" node-id="417" stroke="none" target-height="106.627014" target-width="253.46298" target-x="497.738" target-y="564"></path><path d="M 695.86 555.96 L 714.18 574.26 L 715.85 572.60 C 718.97 569.48 724.04 569.48 727.16 572.60 L 806.37 651.76 C 809.37 654.75 809.49 659.54 806.73 662.68 L 806.37 663.07 L 806.37 663.07 L 788.38 681.05 C 785.25 684.17 780.19 684.17 777.06 681.05 L 697.86 601.89 C 694.86 598.89 694.73 594.11 697.49 590.96 L 697.85 590.58 L 697.85 590.58 L 699.52 588.91 L 681.21 570.60 L 695.86 555.96 Z" fill="url(#paint21_linear_105_138)" fill-rule="evenodd" node-id="419" stroke="none" target-height="128.21698" target-width="128.281" target-x="681.21" target-y="555.956"></path><path d="M 545.67 420.47 C 586.13 380.03 651.74 380.03 692.20 420.47 C 732.66 460.92 732.66 526.49 692.20 566.94 C 651.74 607.38 586.13 607.38 545.67 566.94 C 505.21 526.49 505.21 460.92 545.67 420.47 Z M 560.32 435.12 C 527.95 467.48 527.95 519.94 560.32 552.29 C 592.69 584.65 645.18 584.65 677.55 552.29 C 709.92 519.94 709.92 467.48 677.55 435.12 C 645.18 402.76 592.69 402.76 560.32 435.12 Z" fill="#e8e8e8" fill-rule="nonzero" node-id="421" stroke="none" target-height="227.35602" target-width="227.45297" target-x="505.209" target-y="380.029"></path><path d="M 677.53 552.31 C 709.90 519.94 709.90 467.47 677.53 435.11 C 645.17 402.75 592.70 402.75 560.34 435.11 C 527.97 467.47 527.97 519.94 560.34 552.31 C 592.70 584.67 645.17 584.67 677.53 552.31 Z" fill="url(#paint22_linear_105_138)" fill-rule="nonzero" filter="url(#filter6_d_105_138)" group-id="7" node-id="425" stroke="none" target-height="181.92401" target-width="181.92395" target-x="527.973" target-y="402.747"></path></svg>